<mxfile host="Electron" agent="Mozilla/5.0 (Windows NT 10.0; Win64; x64) AppleWebKit/537.36 (KHTML, like Gecko) draw.io/28.0.6 Chrome/138.0.7204.100 Electron/37.2.3 Safari/537.36" version="28.0.6">
  <diagram id="KBIwsYY--AiB_v0YLguu" name="Page-1">
    <mxGraphModel dx="2216" dy="2158" grid="1" gridSize="10" guides="1" tooltips="1" connect="1" arrows="1" fold="1" page="1" pageScale="1" pageWidth="1654" pageHeight="1169" math="0" shadow="0">
      <root>
        <mxCell id="0" />
        <mxCell id="1" parent="0" />
        <mxCell id="112" style="edgeStyle=none;html=1;exitX=1;exitY=0.5;exitDx=0;exitDy=0;entryX=0.5;entryY=0;entryDx=0;entryDy=0;sketch=1;curveFitting=1;jiggle=2;endArrow=none;endFill=0;" parent="1" source="52" target="M9iqOvp1g94WVJkQ8rMG-64" edge="1">
          <mxGeometry relative="1" as="geometry">
            <Array as="points">
              <mxPoint x="1270" y="-700" />
            </Array>
          </mxGeometry>
        </mxCell>
        <mxCell id="52" value="" style="rounded=1;whiteSpace=wrap;html=1;strokeWidth=2;fillWeight=4;hachureGap=8;hachureAngle=45;fillColor=#f8cecc;strokeColor=#b85450;shadow=1;fillStyle=zigzag;sketch=1;curveFitting=1;jiggle=2;" parent="1" vertex="1">
          <mxGeometry x="980" y="-740" width="140" height="80" as="geometry" />
        </mxCell>
        <mxCell id="53" value="" style="rounded=1;whiteSpace=wrap;html=1;strokeWidth=2;fillWeight=4;hachureGap=8;hachureAngle=45;fillColor=#ffe6cc;strokeColor=#d79b00;shadow=1;fillStyle=zigzag;sketch=1;curveFitting=1;jiggle=2;" parent="1" vertex="1">
          <mxGeometry x="971" y="-731" width="140" height="80" as="geometry" />
        </mxCell>
        <mxCell id="43" value="" style="rounded=1;whiteSpace=wrap;html=1;strokeWidth=2;fillWeight=4;hachureGap=8;hachureAngle=45;fillColor=light-dark(#9090FF,#198CC4);shadow=1;sketch=1;curveFitting=1;jiggle=2;fontStyle=1;rotation=90;" parent="1" vertex="1">
          <mxGeometry x="1305" y="-848.31" width="70" height="40" as="geometry" />
        </mxCell>
        <mxCell id="M9iqOvp1g94WVJkQ8rMG-46" value="" style="rounded=1;whiteSpace=wrap;html=1;strokeWidth=2;fillWeight=4;hachureGap=8;hachureAngle=45;fillColor=#f8cecc;align=center;verticalAlign=middle;fontFamily=Comic Sans MS;fontSize=16;strokeColor=#b85450;fillStyle=zigzag;shadow=1;sketch=1;curveFitting=1;jiggle=2;" parent="1" vertex="1">
          <mxGeometry x="1210" y="-324" width="146.5" height="84" as="geometry" />
        </mxCell>
        <mxCell id="M9iqOvp1g94WVJkQ8rMG-64" value="" style="rounded=1;whiteSpace=wrap;html=1;strokeWidth=2;fillWeight=4;hachureGap=8;hachureAngle=45;fillColor=light-dark(#333333,#198CC4);shadow=1;sketch=1;curveFitting=1;jiggle=2;" parent="1" vertex="1">
          <mxGeometry x="1200" y="-480" width="140" height="76.24" as="geometry" />
        </mxCell>
        <mxCell id="M9iqOvp1g94WVJkQ8rMG-65" value="" style="rounded=1;whiteSpace=wrap;html=1;strokeWidth=2;fillWeight=4;hachureGap=8;hachureAngle=45;fillColor=light-dark(#333333,#198CC4);shadow=1;sketch=1;curveFitting=1;jiggle=2;" parent="1" vertex="1">
          <mxGeometry x="1210" y="-473.25" width="140" height="76.24" as="geometry" />
        </mxCell>
        <mxCell id="127" style="edgeStyle=none;html=1;entryX=0.5;entryY=0;entryDx=0;entryDy=0;sketch=1;curveFitting=1;jiggle=2;endArrow=none;endFill=0;" parent="1" source="M9iqOvp1g94WVJkQ8rMG-66" target="63" edge="1">
          <mxGeometry relative="1" as="geometry">
            <Array as="points">
              <mxPoint x="1286" y="-320" />
            </Array>
          </mxGeometry>
        </mxCell>
        <mxCell id="M9iqOvp1g94WVJkQ8rMG-66" value="&lt;span style=&quot;text-wrap-mode: nowrap;&quot;&gt;&lt;font face=&quot;Comic Sans MS&quot; style=&quot;color: rgb(255, 255, 255);&quot;&gt;Java&lt;/font&gt;&lt;/span&gt;&lt;div&gt;&lt;span style=&quot;text-wrap-mode: nowrap;&quot;&gt;&lt;font face=&quot;Comic Sans MS&quot; style=&quot;color: rgb(255, 255, 255);&quot;&gt;Spring Auth Srv&amp;nbsp;&lt;/font&gt;&lt;/span&gt;&lt;/div&gt;&lt;div&gt;&lt;span style=&quot;text-wrap-mode: nowrap;&quot;&gt;&lt;font face=&quot;Comic Sans MS&quot; style=&quot;color: rgb(255, 255, 255);&quot;&gt;Web SVC / HTTP SSE&lt;/font&gt;&lt;/span&gt;&lt;/div&gt;&lt;div&gt;&lt;font face=&quot;Comic Sans MS&quot;&gt;&lt;span style=&quot;color: rgb(255, 255, 255); text-wrap-mode: nowrap;&quot;&gt;rpc-srv-skeleton&lt;/span&gt;&lt;br&gt;&lt;/font&gt;&lt;div&gt;&lt;br&gt;&lt;/div&gt;&lt;/div&gt;" style="rounded=1;whiteSpace=wrap;html=1;strokeWidth=2;fillWeight=4;hachureGap=8;hachureAngle=45;fillColor=light-dark(#333333,#198CC4);shadow=1;sketch=1;curveFitting=1;jiggle=2;fontStyle=1" parent="1" vertex="1">
          <mxGeometry x="1221" y="-463.76" width="139" height="76.24" as="geometry" />
        </mxCell>
        <mxCell id="46" value="" style="rounded=1;whiteSpace=wrap;html=1;strokeWidth=2;fillWeight=4;hachureGap=8;hachureAngle=45;fillColor=#d5e8d4;strokeColor=#82b366;glass=0;shadow=1;fillStyle=zigzag;sketch=1;curveFitting=1;jiggle=2;" parent="1" vertex="1">
          <mxGeometry x="961" y="-721" width="140" height="80" as="geometry" />
        </mxCell>
        <mxCell id="58" value="&lt;font style=&quot;color: rgb(0, 0, 0);&quot;&gt;&lt;span style=&quot;font-family: &amp;quot;Comic Sans MS&amp;quot;;&quot;&gt;Ory&lt;/span&gt;&lt;span style=&quot;font-family: &amp;quot;Comic Sans MS&amp;quot;; background-color: transparent;&quot;&gt;: IAM &amp;amp; CIAM&lt;/span&gt;&lt;/font&gt;&lt;div style=&quot;font-family: &amp;quot;Comic Sans MS&amp;quot;;&quot;&gt;&lt;span style=&quot;background-color: transparent;&quot;&gt;&lt;font style=&quot;color: rgb(0, 0, 0);&quot;&gt;&amp;nbsp;w/ Identities mgmt&amp;nbsp;&lt;/font&gt;&lt;/span&gt;&lt;/div&gt;" style="text;html=1;align=center;verticalAlign=middle;resizable=0;points=[];autosize=1;strokeColor=none;fillColor=none;shadow=1;fontStyle=1;sketch=1;curveFitting=1;jiggle=2;" parent="1" vertex="1">
          <mxGeometry x="960.5" y="-700" width="140" height="40" as="geometry" />
        </mxCell>
        <mxCell id="61" value="" style="rounded=1;whiteSpace=wrap;html=1;strokeWidth=2;fillWeight=4;hachureGap=8;hachureAngle=45;fillColor=#d5e8d4;shadow=1;strokeColor=#82b366;sketch=1;curveFitting=1;jiggle=2;" parent="1" vertex="1">
          <mxGeometry x="326.25" y="-549.39" width="140" height="87.39" as="geometry" />
        </mxCell>
        <mxCell id="63" value="&lt;div&gt;&lt;font color=&quot;#4d4d4d&quot;&gt;&lt;span style=&quot;font-size: 14px;&quot;&gt;Hezelcast&lt;/span&gt;&lt;/font&gt;&lt;/div&gt;" style="rounded=1;whiteSpace=wrap;html=1;strokeWidth=2;fillWeight=4;hachureGap=8;hachureAngle=45;fillColor=#f8cecc;align=center;verticalAlign=middle;fontFamily=Comic Sans MS;fontSize=16;strokeColor=#b85450;fillStyle=zigzag;shadow=1;sketch=1;curveFitting=1;jiggle=2;fontStyle=1" parent="1" vertex="1">
          <mxGeometry x="1220" y="-332" width="142.5" height="82" as="geometry" />
        </mxCell>
        <mxCell id="66" value="&lt;span style=&quot;color: rgb(0, 0, 0); font-family: &amp;quot;Comic Sans MS&amp;quot;; text-wrap-mode: nowrap;&quot;&gt;&lt;font style=&quot;font-size: 15px;&quot;&gt;&lt;span&gt;MongoDB&lt;/span&gt;&lt;/font&gt;&lt;/span&gt;" style="rounded=1;whiteSpace=wrap;html=1;strokeWidth=2;fillWeight=4;hachureGap=8;hachureAngle=45;fillColor=#d5e8d4;shadow=1;strokeColor=#82b366;sketch=1;curveFitting=1;jiggle=2;fontStyle=1" parent="1" vertex="1">
          <mxGeometry x="336.25" y="-562" width="140" height="90" as="geometry" />
        </mxCell>
        <mxCell id="56" value="&lt;span style=&quot;font-size: 14px;&quot;&gt;&lt;font face=&quot;Comic Sans MS&quot;&gt;RabbitMQ&lt;/font&gt;&lt;/span&gt;&lt;div&gt;&lt;div&gt;&lt;span style=&quot;font-size: 14px;&quot;&gt;&lt;font face=&quot;Comic Sans MS&quot;&gt;RPC Queues&lt;/font&gt;&lt;/span&gt;&lt;/div&gt;&lt;/div&gt;" style="shape=cylinder3;whiteSpace=wrap;html=1;boundedLbl=1;backgroundOutline=1;size=15;fillColor=#1ba1e2;strokeColor=#006EAF;fillStyle=zigzag;shadow=1;fontStyle=1;strokeWidth=1;fontColor=#000000;sketch=1;curveFitting=1;jiggle=2;fontFamily=Comic Sans MS;" parent="1" vertex="1">
          <mxGeometry x="960" y="-590" width="109" height="450" as="geometry" />
        </mxCell>
        <mxCell id="113" value="" style="rounded=1;whiteSpace=wrap;html=1;strokeWidth=2;fillWeight=4;hachureGap=8;hachureAngle=45;fillColor=light-dark(#9090FF,#198CC4);shadow=1;sketch=1;curveFitting=1;jiggle=2;fontStyle=1;rotation=90;" parent="1" vertex="1">
          <mxGeometry x="1315" y="-858.31" width="70" height="40" as="geometry" />
        </mxCell>
        <mxCell id="114" value="" style="rounded=1;whiteSpace=wrap;html=1;strokeWidth=2;fillWeight=4;hachureGap=8;hachureAngle=45;fillColor=light-dark(#9090FF,#198CC4);shadow=1;sketch=1;curveFitting=1;jiggle=2;fontStyle=1;rotation=90;" parent="1" vertex="1">
          <mxGeometry x="1325" y="-868.31" width="70" height="40" as="geometry" />
        </mxCell>
        <mxCell id="118" value="" style="rounded=1;whiteSpace=wrap;html=1;strokeWidth=2;fillWeight=4;hachureGap=8;hachureAngle=45;fillColor=light-dark(#9090FF,#198CC4);shadow=1;sketch=1;curveFitting=1;jiggle=2;fontStyle=1;rotation=90;" parent="1" vertex="1">
          <mxGeometry x="1372" y="-809.31" width="70" height="40" as="geometry" />
        </mxCell>
        <mxCell id="119" value="" style="rounded=1;whiteSpace=wrap;html=1;strokeWidth=2;fillWeight=4;hachureGap=8;hachureAngle=45;fillColor=light-dark(#9090FF,#198CC4);shadow=1;sketch=1;curveFitting=1;jiggle=2;fontStyle=1;rotation=90;" parent="1" vertex="1">
          <mxGeometry x="1382" y="-819.31" width="70" height="40" as="geometry" />
        </mxCell>
        <mxCell id="120" value="" style="rounded=1;whiteSpace=wrap;html=1;strokeWidth=2;fillWeight=4;hachureGap=8;hachureAngle=45;fillColor=light-dark(#9090FF,#198CC4);shadow=1;sketch=1;curveFitting=1;jiggle=2;fontStyle=1;rotation=90;" parent="1" vertex="1">
          <mxGeometry x="1392" y="-829.31" width="70" height="40" as="geometry" />
        </mxCell>
        <mxCell id="121" value="" style="rounded=1;whiteSpace=wrap;html=1;strokeWidth=2;fillWeight=4;hachureGap=8;hachureAngle=45;fillColor=light-dark(#9090FF,#198CC4);shadow=1;sketch=1;curveFitting=1;jiggle=2;fontStyle=1;rotation=90;" parent="1" vertex="1">
          <mxGeometry x="1230" y="-808" width="70" height="40" as="geometry" />
        </mxCell>
        <mxCell id="122" value="" style="rounded=1;whiteSpace=wrap;html=1;strokeWidth=2;fillWeight=4;hachureGap=8;hachureAngle=45;fillColor=light-dark(#9090FF,#198CC4);shadow=1;sketch=1;curveFitting=1;jiggle=2;fontStyle=1;rotation=90;" parent="1" vertex="1">
          <mxGeometry x="1240" y="-818" width="70" height="40" as="geometry" />
        </mxCell>
        <mxCell id="123" value="" style="rounded=1;whiteSpace=wrap;html=1;strokeWidth=2;fillWeight=4;hachureGap=8;hachureAngle=45;fillColor=light-dark(#9090FF,#198CC4);shadow=1;sketch=1;curveFitting=1;jiggle=2;fontStyle=1;rotation=90;" parent="1" vertex="1">
          <mxGeometry x="1250" y="-828" width="70" height="40" as="geometry" />
        </mxCell>
        <mxCell id="124" value="Kotlin&lt;div&gt;Android&amp;nbsp;&lt;/div&gt;&lt;div&gt;DashBoards App&lt;/div&gt;" style="text;html=1;align=center;verticalAlign=middle;resizable=0;points=[];autosize=1;strokeColor=none;fillColor=none;fontFamily=Comic Sans MS;fontSize=16;fontStyle=1" parent="1" vertex="1">
          <mxGeometry x="1272" y="-788" width="150" height="70" as="geometry" />
        </mxCell>
        <mxCell id="125" style="edgeStyle=none;html=1;entryX=0.58;entryY=0.957;entryDx=0;entryDy=0;entryPerimeter=0;sketch=1;curveFitting=1;jiggle=2;endArrow=none;endFill=0;exitX=0.75;exitY=0;exitDx=0;exitDy=0;" parent="1" source="M9iqOvp1g94WVJkQ8rMG-64" target="124" edge="1">
          <mxGeometry relative="1" as="geometry">
            <Array as="points">
              <mxPoint x="1305" y="-650" />
              <mxPoint x="1360" y="-650" />
            </Array>
          </mxGeometry>
        </mxCell>
        <mxCell id="130" value="&lt;font face=&quot;Comic Sans MS&quot;&gt;JSON-RPC&lt;/font&gt;" style="text;html=1;align=center;verticalAlign=middle;resizable=0;points=[];autosize=1;strokeColor=none;fillColor=none;fontStyle=1;fontSize=15;" parent="1" vertex="1">
          <mxGeometry x="1082" y="-430.64" width="100" height="30" as="geometry" />
        </mxCell>
        <mxCell id="138" value="" style="rounded=1;whiteSpace=wrap;html=1;strokeWidth=2;fillWeight=4;hachureGap=8;hachureAngle=45;fillColor=light-dark(#333333,#198CC4);shadow=1;sketch=1;curveFitting=1;jiggle=2;" parent="1" vertex="1">
          <mxGeometry x="585" y="-589.12" width="151" height="92.12" as="geometry" />
        </mxCell>
        <mxCell id="139" value="" style="rounded=1;whiteSpace=wrap;html=1;strokeWidth=2;fillWeight=4;hachureGap=8;hachureAngle=45;fillColor=light-dark(#333333,#198CC4);shadow=1;sketch=1;curveFitting=1;jiggle=2;" parent="1" vertex="1">
          <mxGeometry x="595" y="-582.37" width="161" height="95.37" as="geometry" />
        </mxCell>
        <mxCell id="140" value="&lt;span style=&quot;font-family: &amp;quot;Comic Sans MS&amp;quot;; text-wrap-mode: nowrap;&quot;&gt;&lt;font style=&quot;color: rgb(255, 255, 255);&quot;&gt;Java&lt;/font&gt;&lt;/span&gt;&lt;div&gt;&lt;span style=&quot;font-family: &amp;quot;Comic Sans MS&amp;quot;; text-wrap-mode: nowrap;&quot;&gt;&lt;font style=&quot;color: rgb(255, 255, 255);&quot;&gt;Spring Data MongoDB&amp;nbsp;&lt;/font&gt;&lt;/span&gt;&lt;/div&gt;&lt;div&gt;&lt;span style=&quot;font-family: &amp;quot;Comic Sans MS&amp;quot;; text-wrap-mode: nowrap;&quot;&gt;&lt;font style=&quot;color: rgb(255, 255, 255);&quot;&gt;Web Service&lt;/font&gt;&lt;/span&gt;&lt;/div&gt;&lt;div&gt;&lt;span style=&quot;font-family: &amp;quot;Comic Sans MS&amp;quot;; text-wrap-mode: nowrap;&quot;&gt;&lt;font style=&quot;color: rgb(255, 255, 255);&quot;&gt;rpc-srv-implementation&lt;/font&gt;&lt;/span&gt;&lt;/div&gt;&lt;div&gt;&lt;span style=&quot;font-family: &amp;quot;Comic Sans MS&amp;quot;; text-wrap-mode: nowrap;&quot;&gt;&lt;font style=&quot;color: rgb(255, 255, 255);&quot;&gt;&lt;br&gt;&lt;/font&gt;&lt;/span&gt;&lt;/div&gt;&lt;div&gt;&lt;span style=&quot;font-family: &amp;quot;Comic Sans MS&amp;quot;; text-wrap-mode: nowrap;&quot;&gt;&lt;font style=&quot;color: rgb(126, 166, 224);&quot;&gt;world_info&lt;/font&gt;&lt;font style=&quot;color: rgb(255, 255, 255);&quot;&gt; &lt;span style=&quot;font-weight: normal;&quot;&gt;namespace&lt;/span&gt;&lt;/font&gt;&lt;/span&gt;&lt;/div&gt;" style="rounded=1;whiteSpace=wrap;html=1;strokeWidth=2;fillWeight=4;hachureGap=8;hachureAngle=45;fillColor=light-dark(#333333,#198CC4);shadow=1;sketch=1;curveFitting=1;jiggle=2;fontStyle=1" parent="1" vertex="1">
          <mxGeometry x="606" y="-572.88" width="160" height="95.88" as="geometry" />
        </mxCell>
        <mxCell id="141" value="" style="rounded=1;whiteSpace=wrap;html=1;strokeWidth=2;fillWeight=4;hachureGap=8;hachureAngle=45;fillColor=#f8cecc;align=center;verticalAlign=middle;fontFamily=Comic Sans MS;fontSize=16;strokeColor=#b85450;fillStyle=zigzag;shadow=1;sketch=1;curveFitting=1;jiggle=2;" parent="1" vertex="1">
          <mxGeometry x="320" y="-412" width="146.5" height="84" as="geometry" />
        </mxCell>
        <mxCell id="142" value="&lt;div&gt;&lt;font color=&quot;#4d4d4d&quot;&gt;&lt;span style=&quot;font-size: 14px;&quot;&gt;Hezelcast&lt;/span&gt;&lt;/font&gt;&lt;/div&gt;" style="rounded=1;whiteSpace=wrap;html=1;strokeWidth=2;fillWeight=4;hachureGap=8;hachureAngle=45;fillColor=#f8cecc;align=center;verticalAlign=middle;fontFamily=Comic Sans MS;fontSize=16;strokeColor=#b85450;fillStyle=zigzag;shadow=1;sketch=1;curveFitting=1;jiggle=2;fontStyle=1" parent="1" vertex="1">
          <mxGeometry x="330" y="-420" width="142.5" height="82" as="geometry" />
        </mxCell>
        <mxCell id="145" style="edgeStyle=none;html=1;entryX=1.01;entryY=0.401;entryDx=0;entryDy=0;entryPerimeter=0;sketch=1;curveFitting=1;jiggle=2;endArrow=none;endFill=0;" parent="1" target="140" edge="1">
          <mxGeometry relative="1" as="geometry">
            <mxPoint x="960" y="-535" as="sourcePoint" />
          </mxGeometry>
        </mxCell>
        <mxCell id="146" value="&lt;font face=&quot;Comic Sans MS&quot;&gt;JSON-RPC&amp;nbsp;&lt;/font&gt;&lt;div&gt;&lt;font face=&quot;Comic Sans MS&quot;&gt;world_info queue&lt;/font&gt;&lt;/div&gt;" style="text;html=1;align=center;verticalAlign=middle;resizable=0;points=[];autosize=1;strokeColor=none;fillColor=none;fontStyle=1;fontSize=15;" parent="1" vertex="1">
          <mxGeometry x="815" y="-537" width="140" height="50" as="geometry" />
        </mxCell>
        <mxCell id="148" value="" style="ellipse;whiteSpace=wrap;html=1;strokeWidth=2;fillWeight=2;hachureGap=8;fillColor=#b1ddf0;fillStyle=zigzag;fontFamily=Architects Daughter;fontSource=https%3A%2F%2Ffonts.googleapis.com%2Fcss%3Ffamily%3DArchitects%2BDaughter;strokeColor=#10739e;shadow=1;sketch=1;curveFitting=1;jiggle=2;fontStyle=1;" parent="1" vertex="1">
          <mxGeometry x="278.75" y="-260" width="331" height="92" as="geometry" />
        </mxCell>
        <mxCell id="149" value="" style="ellipse;whiteSpace=wrap;html=1;strokeWidth=2;fillWeight=2;hachureGap=8;fillColor=#b1ddf0;fillStyle=zigzag;fontFamily=Architects Daughter;fontSource=https%3A%2F%2Ffonts.googleapis.com%2Fcss%3Ffamily%3DArchitects%2BDaughter;strokeColor=#10739e;shadow=1;sketch=1;curveFitting=1;jiggle=2;fontStyle=1;" parent="1" vertex="1">
          <mxGeometry x="291.75" y="-249" width="331" height="92" as="geometry" />
        </mxCell>
        <mxCell id="150" value="&lt;font style=&quot;color: rgb(0, 0, 0);&quot;&gt;External Public web APIs and services&lt;/font&gt;&lt;div&gt;&lt;font style=&quot;color: rgb(0, 0, 0);&quot;&gt;- weather, clock, geolocation,&amp;nbsp;&lt;/font&gt;&lt;/div&gt;&lt;div&gt;&lt;font style=&quot;color: rgb(0, 0, 0);&quot;&gt;etc...&lt;/font&gt;&lt;/div&gt;" style="ellipse;whiteSpace=wrap;html=1;strokeWidth=2;fillWeight=2;hachureGap=8;fillColor=#b1ddf0;fillStyle=zigzag;fontFamily=Comic Sans MS;strokeColor=#10739e;shadow=1;sketch=1;curveFitting=1;jiggle=2;fontStyle=1;fontSize=17;" parent="1" vertex="1">
          <mxGeometry x="302.75" y="-238" width="331" height="92" as="geometry" />
        </mxCell>
        <mxCell id="rF27zGda0f2o9iz_VQ4h-151" value="&lt;b&gt;&lt;font style=&quot;font-size: 14px;&quot;&gt;SSE Subscription&lt;/font&gt;&lt;/b&gt;&lt;div&gt;&lt;b&gt;&lt;font style=&quot;font-size: 14px;&quot;&gt;JSON-RPC&lt;/font&gt;&lt;/b&gt;&lt;/div&gt;" style="text;html=1;align=center;verticalAlign=middle;resizable=0;points=[];autosize=1;strokeColor=none;fillColor=none;fontFamily=Comic Sans MS;" parent="1" vertex="1">
          <mxGeometry x="1300" y="-651" width="140" height="50" as="geometry" />
        </mxCell>
        <mxCell id="rF27zGda0f2o9iz_VQ4h-152" value="&lt;font style=&quot;font-size: 14px;&quot;&gt;Oauth2/OIDC&lt;/font&gt;" style="text;html=1;align=center;verticalAlign=middle;resizable=0;points=[];autosize=1;strokeColor=none;fillColor=none;fontFamily=Comic Sans MS;fontStyle=1;fontSize=13;" parent="1" vertex="1">
          <mxGeometry x="1118" y="-727" width="120" height="30" as="geometry" />
        </mxCell>
        <mxCell id="FWAzQpKIjR9kFiQ_KNxF-151" style="edgeStyle=orthogonalEdgeStyle;rounded=0;sketch=1;hachureGap=4;jiggle=2;curveFitting=1;orthogonalLoop=1;jettySize=auto;html=1;exitX=0;exitY=0.5;exitDx=0;exitDy=0;entryX=1.005;entryY=0.186;entryDx=0;entryDy=0;entryPerimeter=0;fontFamily=Architects Daughter;fontSource=https%3A%2F%2Ffonts.googleapis.com%2Fcss%3Ffamily%3DArchitects%2BDaughter;endArrow=none;endFill=0;" parent="1" source="M9iqOvp1g94WVJkQ8rMG-65" edge="1">
          <mxGeometry relative="1" as="geometry">
            <mxPoint x="1069.545" y="-436.29999999999995" as="targetPoint" />
          </mxGeometry>
        </mxCell>
        <mxCell id="rbWJIEI3govXntfSJS5m-151" value="" style="rounded=1;whiteSpace=wrap;html=1;strokeWidth=2;fillWeight=4;hachureGap=8;hachureAngle=45;fillColor=#76608a;shadow=1;sketch=1;curveFitting=1;jiggle=2;fontColor=#ffffff;strokeColor=#432D57;fillStyle=solid;" vertex="1" parent="1">
          <mxGeometry x="585" y="-415.12" width="151" height="95.12" as="geometry" />
        </mxCell>
        <mxCell id="rbWJIEI3govXntfSJS5m-152" value="" style="rounded=1;whiteSpace=wrap;html=1;strokeWidth=2;fillWeight=4;hachureGap=8;hachureAngle=45;fillColor=#76608a;shadow=1;sketch=1;curveFitting=1;jiggle=2;fontColor=#ffffff;strokeColor=#432D57;fillStyle=solid;" vertex="1" parent="1">
          <mxGeometry x="595" y="-408.37" width="161" height="98.37" as="geometry" />
        </mxCell>
        <mxCell id="rbWJIEI3govXntfSJS5m-168" style="edgeStyle=orthogonalEdgeStyle;rounded=0;sketch=1;hachureGap=4;jiggle=2;curveFitting=1;orthogonalLoop=1;jettySize=auto;html=1;exitX=0.5;exitY=1;exitDx=0;exitDy=0;entryX=1;entryY=0.5;entryDx=0;entryDy=0;fontFamily=Architects Daughter;fontSource=https%3A%2F%2Ffonts.googleapis.com%2Fcss%3Ffamily%3DArchitects%2BDaughter;endArrow=none;endFill=0;" edge="1" parent="1" source="rbWJIEI3govXntfSJS5m-153" target="150">
          <mxGeometry relative="1" as="geometry" />
        </mxCell>
        <mxCell id="rbWJIEI3govXntfSJS5m-153" value="&lt;span style=&quot;font-family: &amp;quot;Comic Sans MS&amp;quot;; text-wrap-mode: nowrap;&quot;&gt;&lt;font style=&quot;color: rgb(255, 255, 255);&quot;&gt;Golang&lt;/font&gt;&lt;/span&gt;&lt;div&gt;&lt;span style=&quot;font-family: &amp;quot;Comic Sans MS&amp;quot;; text-wrap-mode: nowrap;&quot;&gt;&lt;font style=&quot;color: rgb(255, 255, 255);&quot;&gt;Web Service&lt;/font&gt;&lt;/span&gt;&lt;/div&gt;&lt;div&gt;&lt;span style=&quot;font-family: &amp;quot;Comic Sans MS&amp;quot;; text-wrap-mode: nowrap;&quot;&gt;&lt;font style=&quot;color: rgb(255, 255, 255);&quot;&gt;rpc-srv-implementation&lt;/font&gt;&lt;/span&gt;&lt;/div&gt;&lt;div&gt;&lt;span style=&quot;font-family: &amp;quot;Comic Sans MS&amp;quot;; text-wrap-mode: nowrap;&quot;&gt;&lt;font style=&quot;color: rgb(255, 255, 255);&quot;&gt;&lt;br&gt;&lt;/font&gt;&lt;/span&gt;&lt;/div&gt;&lt;div&gt;&lt;span style=&quot;font-family: &amp;quot;Comic Sans MS&amp;quot;; text-wrap-mode: nowrap;&quot;&gt;&lt;font style=&quot;color: rgb(126, 166, 224);&quot;&gt;world_info.ext_provider&lt;/font&gt;&lt;/span&gt;&lt;/div&gt;&lt;div&gt;&lt;span style=&quot;font-family: &amp;quot;Comic Sans MS&amp;quot;; text-wrap-mode: nowrap;&quot;&gt;&lt;font style=&quot;color: rgb(255, 255, 255);&quot;&gt;&amp;nbsp;&lt;span style=&quot;font-weight: normal;&quot;&gt;namespace&lt;/span&gt;&lt;/font&gt;&lt;/span&gt;&lt;/div&gt;" style="rounded=1;whiteSpace=wrap;html=1;strokeWidth=2;fillWeight=4;hachureGap=8;hachureAngle=45;fillColor=#76608a;shadow=1;sketch=1;curveFitting=1;jiggle=2;fontStyle=1;fontColor=#ffffff;strokeColor=#432D57;fillStyle=solid;" vertex="1" parent="1">
          <mxGeometry x="606" y="-398.88" width="160" height="98.88" as="geometry" />
        </mxCell>
        <mxCell id="rbWJIEI3govXntfSJS5m-154" style="edgeStyle=none;html=1;entryX=1.01;entryY=0.401;entryDx=0;entryDy=0;entryPerimeter=0;sketch=1;curveFitting=1;jiggle=2;endArrow=none;endFill=0;exitX=-0.028;exitY=0.516;exitDx=0;exitDy=0;exitPerimeter=0;" edge="1" target="rbWJIEI3govXntfSJS5m-153" parent="1" source="56">
          <mxGeometry relative="1" as="geometry">
            <mxPoint x="960" y="-351" as="sourcePoint" />
          </mxGeometry>
        </mxCell>
        <mxCell id="rbWJIEI3govXntfSJS5m-155" value="&lt;font face=&quot;Comic Sans MS&quot;&gt;JSON-RPC&amp;nbsp;&lt;/font&gt;&lt;div&gt;&lt;font face=&quot;Comic Sans MS&quot;&gt;world_info.ext_provider&lt;/font&gt;&lt;/div&gt;&lt;div&gt;&lt;font face=&quot;Comic Sans MS&quot;&gt;&amp;nbsp;queue&lt;/font&gt;&lt;/div&gt;" style="text;html=1;align=center;verticalAlign=middle;resizable=0;points=[];autosize=1;strokeColor=none;fillColor=none;fontStyle=1;fontSize=15;" vertex="1" parent="1">
          <mxGeometry x="769" y="-359" width="190" height="70" as="geometry" />
        </mxCell>
        <mxCell id="rbWJIEI3govXntfSJS5m-163" value="" style="endArrow=none;html=1;rounded=0;sketch=1;hachureGap=4;jiggle=2;curveFitting=1;fontFamily=Architects Daughter;fontSource=https%3A%2F%2Ffonts.googleapis.com%2Fcss%3Ffamily%3DArchitects%2BDaughter;" edge="1" parent="1">
          <mxGeometry width="50" height="50" relative="1" as="geometry">
            <mxPoint x="476.5" y="-370" as="sourcePoint" />
            <mxPoint x="584" y="-370" as="targetPoint" />
          </mxGeometry>
        </mxCell>
        <mxCell id="rbWJIEI3govXntfSJS5m-164" value="" style="endArrow=none;html=1;rounded=0;sketch=1;hachureGap=4;jiggle=2;curveFitting=1;fontFamily=Architects Daughter;fontSource=https%3A%2F%2Ffonts.googleapis.com%2Fcss%3Ffamily%3DArchitects%2BDaughter;entryX=-0.013;entryY=0.429;entryDx=0;entryDy=0;entryPerimeter=0;" edge="1" parent="1">
          <mxGeometry width="50" height="50" relative="1" as="geometry">
            <mxPoint x="474.46" y="-525.42" as="sourcePoint" />
            <mxPoint x="584.96" y="-525.42" as="targetPoint" />
          </mxGeometry>
        </mxCell>
        <mxCell id="rbWJIEI3govXntfSJS5m-165" value="" style="endArrow=none;html=1;rounded=0;sketch=1;hachureGap=4;jiggle=2;curveFitting=1;fontFamily=Architects Daughter;fontSource=https%3A%2F%2Ffonts.googleapis.com%2Fcss%3Ffamily%3DArchitects%2BDaughter;entryX=1.013;entryY=0.922;entryDx=0;entryDy=0;entryPerimeter=0;exitX=0;exitY=0;exitDx=0;exitDy=0;" edge="1" parent="1" source="rbWJIEI3govXntfSJS5m-151" target="66">
          <mxGeometry width="50" height="50" relative="1" as="geometry">
            <mxPoint x="511" y="-420.64" as="sourcePoint" />
            <mxPoint x="561" y="-470.64" as="targetPoint" />
          </mxGeometry>
        </mxCell>
        <mxCell id="rbWJIEI3govXntfSJS5m-166" value="" style="endArrow=none;html=1;rounded=0;sketch=1;hachureGap=4;jiggle=2;curveFitting=1;fontFamily=Architects Daughter;fontSource=https%3A%2F%2Ffonts.googleapis.com%2Fcss%3Ffamily%3DArchitects%2BDaughter;exitX=1;exitY=0;exitDx=0;exitDy=0;entryX=0;entryY=1;entryDx=0;entryDy=0;" edge="1" parent="1" source="142" target="140">
          <mxGeometry width="50" height="50" relative="1" as="geometry">
            <mxPoint x="500" y="-420.64" as="sourcePoint" />
            <mxPoint x="550" y="-470.64" as="targetPoint" />
          </mxGeometry>
        </mxCell>
        <mxCell id="rbWJIEI3govXntfSJS5m-167" style="edgeStyle=orthogonalEdgeStyle;rounded=0;sketch=1;hachureGap=4;jiggle=2;curveFitting=1;orthogonalLoop=1;jettySize=auto;html=1;exitX=0.5;exitY=1;exitDx=0;exitDy=0;fontFamily=Architects Daughter;fontSource=https%3A%2F%2Ffonts.googleapis.com%2Fcss%3Ffamily%3DArchitects%2BDaughter;endArrow=none;endFill=0;" edge="1" parent="1" source="140">
          <mxGeometry relative="1" as="geometry">
            <mxPoint x="686" y="-420" as="targetPoint" />
            <Array as="points">
              <mxPoint x="686" y="-450" />
              <mxPoint x="686" y="-450" />
            </Array>
          </mxGeometry>
        </mxCell>
        <mxCell id="rbWJIEI3govXntfSJS5m-169" value="&lt;font face=&quot;Comic Sans MS&quot;&gt;JSON-RPC&lt;/font&gt;" style="text;html=1;align=center;verticalAlign=middle;resizable=0;points=[];autosize=1;strokeColor=none;fillColor=none;fontStyle=1;fontSize=15;" vertex="1" parent="1">
          <mxGeometry x="685" y="-459.88" width="100" height="30" as="geometry" />
        </mxCell>
      </root>
    </mxGraphModel>
  </diagram>
</mxfile>
